<?xml version="1.0" encoding="UTF-8" standalone="no"?>
<svg
   xmlns:dc="http://purl.org/dc/elements/1.1/"
   xmlns:cc="http://creativecommons.org/ns#"
   xmlns:rdf="http://www.w3.org/1999/02/22-rdf-syntax-ns#"
   xmlns:svg="http://www.w3.org/2000/svg"
   xmlns="http://www.w3.org/2000/svg"
   height="512"
   width="512"
   version="1.1"
   id="svg3384"
   class="svg-inline--fa fa-tint fa-w-12 fa-7x"
   viewBox="0 0 512 512"
   role="img"
   data-icon="tint"
   data-prefix="fas"
   aria-hidden="true">
  <metadata
     id="metadata3392">
    <rdf:RDF>
      <cc:Work
         rdf:about="">
        <dc:format>image/svg+xml</dc:format>
        <dc:type
           rdf:resource="http://purl.org/dc/dcmitype/StillImage" />
        <dc:title></dc:title>
      </cc:Work>
    </rdf:RDF>
  </metadata>
  <defs
     id="defs3390" />
  <g
     id="layer1">
    <path
       style="fill:#57c2ff;fill-opacity:1"
       id="path3386"
       class=""
       d="M 243.00976,415.03178 C 179.24695,451.84524 97.862266,430.03829 61.048804,366.27549 19.462862,294.24655 68.980381,228.63217 40.637535,108.74059 35.271784,85.827708 62.975092,70.988806 78.939925,86.626692 169.01039,171.50686 249.97069,160.67912 291.76606,233.07081 c 36.81345,63.76281 15.0065,145.1475 -48.7563,181.96097 z m -91.80509,-95.40026 c -3.04674,-3.01975 -8.18835,-0.0503 -7.09691,4.09741 5.03024,22.50979 -4.00234,34.82424 3.77287,48.2913 6.92662,11.99726 22.11946,16.0687 34.11738,9.14171 11.99791,-6.92701 16.06832,-22.1201 9.14171,-34.11735 -7.79353,-13.4988 -22.92491,-11.77325 -39.93505,-27.41307 z" />
    <path
       style="fill:#57c2ff;fill-opacity:1"
       id="path3386-3"
       class=""
       d="m 437.56629,240.97132 c -39.56275,22.84156 -90.0593,9.31106 -112.90086,-30.25169 -25.80272,-44.69162 4.92129,-85.4032 -12.66452,-159.792011 -3.32928,-14.216698 13.85973,-23.423754 23.76538,-13.720955 55.8858,52.665373 106.11905,45.947119 132.0517,90.863796 22.84156,39.56275 9.31105,90.0593 -30.2517,112.90086 z" />
    <path
       style="fill:#57c2ff;fill-opacity:1"
       id="path3386-6"
       class=""
       d="m 437.9633,474.78321 c -27.31959,15.77298 -62.18941,6.42964 -77.96238,-20.88995 -17.81777,-30.86129 3.39834,-58.9742 -8.74535,-110.34253 -2.29898,-9.81718 9.57068,-16.175 16.41092,-9.47485 38.59129,36.36746 73.27928,31.72825 91.18677,62.74494 15.77297,27.3196 6.42964,62.18941 -20.88996,77.96239 z" />
  </g>
  <g
     id="layer2">
    <path
       d="M -11.123528,374.27144 75.84588,524.90689 M 206.42609,45.27032 304.06712,214.38958"
       style="fill:none;fill-rule:evenodd;stroke:#57c2ff;stroke-width:12.47219658;stroke-linecap:round;stroke-linejoin:miter;stroke-miterlimit:4;stroke-dasharray:none;stroke-opacity:1"
       id="path4249-7" />
    <path
       d="M 221.71257,-53.839212 291.44319,66.93778 M 11.364941,-52.298204 81.09556,68.47879 m -119.813394,8.6677 69.73062,120.77699 m -64.337088,50.27493 69.730618,120.77699 m 117.752994,86.46205 69.73062,120.77699 m 1.67516,-136.931 69.73062,120.77699 m 182.99474,-77.62876 69.73062,120.77699 M 294.13995,383.80714 363.87057,504.58413 m 65.87812,-237.12311 69.73062,120.77699 M 483.68398,235.09984 553.4146,355.87683 M 462.10986,35.539267 531.84048,156.31626 M 358.86231,-59.232741 428.59293,61.54425 M 145.43266,12.038894 215.16328,132.81589"
       style="fill:none;fill-rule:evenodd;stroke:#57c2ff;stroke-width:10;stroke-linecap:round;stroke-linejoin:miter;stroke-miterlimit:4;stroke-dasharray:none;stroke-opacity:1"
       id="path4249-27-9" />
    <path
       d="m 493.38325,172.66869 40.78044,70.63379 M 462.87284,-18.021359 503.65328,52.61243 M 322.48412,-34.161141 363.26456,36.47265 M -11.914671,17.462636 28.865769,88.09643 m 464.670271,330.02836 40.78044,70.63379 m -103.19128,3.33461 40.78045,70.63379 m -482.279316,-109.9295 40.78044,70.63379 m -40.780436,-326.44117 40.78044,70.63379 m 239.297812,147.62433 40.78044,70.63379 m 49.35737,-220.0001 47.97692,83.09848 m -314.60135,69.61705 50.87934,88.1256 m -36.09389,-467.7766 52.89911,91.62397 m 163.71922,122.34605 34.59027,59.91212"
       style="fill:none;fill-rule:evenodd;stroke:#57c2ff;stroke-width:5.84828186;stroke-linecap:round;stroke-linejoin:miter;stroke-miterlimit:4;stroke-dasharray:none;stroke-opacity:1"
       id="path4249-92-73-9" />
    <path
       d="m 197.64297,-9.644122 28.59078,49.520692 m -214.922191,68.16231 28.59078,49.52069 m 232.927001,311.1559 28.59078,49.52069 M 93.03586,-25.988983 121.62664,23.531706 m 263.43741,472.425204 28.59078,49.52069 m 64.0301,-110.5415 28.59078,49.52069 m -17.6942,-159.57609 28.59078,49.52069 m -47.65291,-110.18287 28.59078,49.52069 M 440.63658,49.19738 469.22736,98.71807 M 270.65002,-27.078641 299.2408,22.442049 m -84.16331,447.363091 28.59078,49.52069 m -68.9081,-81.12076 28.59078,49.52069 m -150.63241,-95.2863 28.59078,49.52069 m -25.321809,0.60356 28.590779,49.52069 m 328.1644,-196.07962 28.59078,49.52069 m -124.57886,-5.31512 28.87747,50.01725 m -85.87863,-312.69913 28.59078,49.52069"
       style="fill:none;fill-rule:evenodd;stroke:#57c2ff;stroke-width:4.1001749;stroke-linecap:round;stroke-linejoin:miter;stroke-miterlimit:4;stroke-dasharray:none;stroke-opacity:1"
       id="path4249-92-73-3-37" />
    <path
       d="m 96.80885,67.71862 21.0448,36.45067 m 114.07272,39.82535 21.0448,36.45067 m 206.6936,188.01875 21.0448,36.45067 m -18.86549,97.57719 21.0448,36.45067 M 10.725919,274.75352 l 21.0448,36.45067 M 173.4435,104.03595 l 21.0448,36.45066 m -179.403751,226.8878 21.0448,36.45067 M 20.573515,17.049551 41.618315,53.50022 M 319.13451,298.176 l 20.97371,36.32753"
       style="fill:none;fill-rule:evenodd;stroke:#57c2ff;stroke-width:3.01801348;stroke-linecap:round;stroke-linejoin:miter;stroke-miterlimit:4;stroke-dasharray:none;stroke-opacity:1"
       id="path4249-92-73-3-452-78" />
  </g>
</svg>
